# xmcd
#
# Track frame offsets: 
#        150
#        16106
#        31973
#        48798
#        77841
#        93456
#        113479
#        145072
#        160422
#        176678
#        200920
#        214245
#        242674
#        262521
#        281571
#        293305
#        311563
#        330205
#
# Disc length: 4770 seconds
#
# Revision: 0
# Processed by: cddbd v1.5.2PL0 Copyright (c) Steve Scherf et al.
# Submitted via: ExactAudioCopy v1.3
#
DISCID=e912a012
DTITLE=Various Artist - Akella Presents - vol. 152 - Various Styles O
DTITLE=f Blues  CD1
DYEAR=2018
DGENRE=Blues
TTITLE0=Roy Mette - Vibralism
TTITLE1=Robin Barrett and Coyote Kings - Crazy In The Head
TTITLE2=The Blues Overdrive - Woman of Love
TTITLE3=Zoe Schwarz - The Blues And I Should Have A Party
TTITLE4=Rick Parfitt - Lonesome Road
TTITLE5=Mike Zito - Back Problems
TTITLE6=The Bluesbones - Sealed Souls
TTITLE7=Mick Kolassa and Mark Telesca - Why Don't We Do It in the Road
TTITLE8=Jason Morton - Round The Corner
TTITLE9=Beau Jocque - Brownskin Woman
TTITLE10=Gurf Morlix - Wild Things
TTITLE11=Subluna - Got Myself A Bluesride
TTITLE12=Rockwell Avenue Blues Band - Back To Chicago
TTITLE13=Tiphony Dames - Standin'
TTITLE14=The Cadillac Kings - Cadillac Shake
TTITLE15=John Blues Boyd - I'm so Weak Right Now
TTITLE16=Cameo Blues Band - Mercury Blues
TTITLE17=Frank Raven - I Wake Up Screamin
EXTD=
EXTT0=
EXTT1=
EXTT2=
EXTT3=
EXTT4=
EXTT5=
EXTT6=
EXTT7=
EXTT8=
EXTT9=
EXTT10=
EXTT11=
EXTT12=
EXTT13=
EXTT14=
EXTT15=
EXTT16=
EXTT17=
PLAYORDER=
